<?xml version="1.0" encoding="UTF-8" standalone="no"?>
<!-- Generator: Adobe Illustrator 16.0.0, SVG Export Plug-In . SVG Version: 6.00 Build 0)  -->

<svg
   xmlns:dc="http://purl.org/dc/elements/1.1/"
   xmlns:cc="http://creativecommons.org/ns#"
   xmlns:rdf="http://www.w3.org/1999/02/22-rdf-syntax-ns#"
   xmlns:svg="http://www.w3.org/2000/svg"
   xmlns="http://www.w3.org/2000/svg"
   xmlns:sodipodi="http://sodipodi.sourceforge.net/DTD/sodipodi-0.dtd"
   xmlns:inkscape="http://www.inkscape.org/namespaces/inkscape"
   version="1.1"
   id="Layer_1"
   x="0px"
   y="0px"
   width="168px"
   height="168px"
   viewBox="0 0 168 168"
   style="enable-background:new 0 0 168 168;"
   xml:space="preserve"
   sodipodi:docname="unisight.svg"
   inkscape:version="0.92.1 r15371"><metadata
     id="metadata15"><rdf:RDF><cc:Work
         rdf:about=""><dc:format>image/svg+xml</dc:format><dc:type
           rdf:resource="http://purl.org/dc/dcmitype/StillImage" /></cc:Work></rdf:RDF></metadata><defs
     id="defs13" /><sodipodi:namedview
     pagecolor="#ffffff"
     bordercolor="#666666"
     borderopacity="1"
     objecttolerance="10"
     gridtolerance="10"
     guidetolerance="10"
     inkscape:pageopacity="0"
     inkscape:pageshadow="2"
     inkscape:window-width="1920"
     inkscape:window-height="1057"
     id="namedview11"
     showgrid="false"
     inkscape:zoom="16"
     inkscape:cx="53.728621"
     inkscape:cy="74.116268"
     inkscape:window-x="-8"
     inkscape:window-y="1016"
     inkscape:window-maximized="1"
     inkscape:current-layer="g8" /><g
     id="g8"><path
       style="fill-rule:evenodd;clip-rule:evenodd;fill:#B0CF46;"
       d="M10.1,70.7c28.7-16.2,64.8-9,76.8,2.3l8.7,0C84.6,55.7,40.2,50,10.1,70.7"
       id="path4" /><path
       style="fill-rule:evenodd;clip-rule:evenodd;fill:#B0CF46;"
       d="M76.3,97.3c28.7,16.2,64.8,9,76.8-2.3l8.7,0C150.9,112.3,106.4,118,76.3,97.3"
       id="path6" /><path
       style="fill:#555756;fill-opacity:1;stroke:#ffffff;stroke-width:0.125"
       d="M 8.1271388,98.23135 C 6.606697,97.824555 5.2331347,96.627509 4.4420456,95.019828 3.6326094,93.37486 3.6317183,93.362053 3.6293093,83.337994 l -0.00217,-9.03125 h 2.5 2.5 l 7e-4,8.90625 c 4.5e-4,5.743205 0.046568,9.071417 0.1298579,9.371315 0.2472544,0.89029 -0.1668127,0.847435 8.1879658,0.847435 h 7.512897 l 0.30304,-0.322526 0.303039,-0.322528 0.03361,-9.239973 0.03361,-9.239973 h 2.504916 2.504916 l -0.04479,9.28125 c -0.01955,4.051945 -0.03583,6.374919 -0.06965,7.76863 -0.03581,1.475873 -0.0913,1.909691 -0.19117,2.251095 -0.688506,2.353586 -2.3446,4.096839 -4.400801,4.632411 -1.070374,0.278796 -16.2620833,0.27109 -17.3081297,-0.0088 z"
       id="path94"
       inkscape:connector-curvature="0"
       sodipodi:nodetypes="csscccscscccccccsscscc" /><path
       style="fill:#555756;fill-opacity:1;stroke:#ffffff;stroke-width:0.0625"
       d="m 34.833699,83.606989 v -8.65625 l 2.046875,0.0043 2.046875,0.0043 5.21875,5.776195 c 2.870313,3.176907 5.239844,5.776549 5.265625,5.776982 0.02578,4.33e-4 0.04687,-2.600776 0.04687,-5.780463 v -5.78125 h 2 2 v 8.657081 8.657081 l -2.087008,-0.01646 -2.087008,-0.01646 -5.178617,-5.826548 -5.178617,-5.826549 -0.01595,5.842174 -0.01595,5.842173 h -2.030929 -2.03093 z"
       id="path96"
       inkscape:connector-curvature="0" /><path
       style="fill:#555756;fill-opacity:1;stroke:#ffffff;stroke-width:0.0625"
       d="m 57.146199,83.606989 v -8.65625 h 2 2 v 8.65625 8.65625 h -2 -2 z"
       id="path98"
       inkscape:connector-curvature="0" /><path
       style="fill:#555756;fill-opacity:1;stroke:#ffffff;stroke-width:0.0625"
       d="m 65.708699,90.359037 v -2.033298 l 7.609375,-9.19e-4 c 5.920999,-7.19e-4 7.643285,-0.01808 7.762204,-0.07827 0.272099,-0.137704 0.400932,-0.452118 0.429421,-1.047984 0.02962,-0.61954 -0.0914,-1.15187 -0.306059,-1.346204 -0.128756,-0.116566 -0.323122,-0.121454 -6.142077,-0.15444 -5.925198,-0.03359 -6.01591,-0.03596 -6.495784,-0.169907 -0.861345,-0.240422 -1.433705,-0.585859 -2.142662,-1.293165 -0.57635,-0.575008 -0.658851,-0.688376 -0.979965,-1.346616 -0.491102,-1.006692 -0.575927,-1.382433 -0.571441,-2.53125 0.0033,-0.836132 0.02213,-0.998321 0.174433,-1.5 0.46629,-1.535898 1.415598,-2.773676 2.560637,-3.338749 0.994554,-0.490809 0.602169,-0.464507 7.290194,-0.488675 l 5.969527,-0.02157 1.917355,2.018248 1.917355,2.018248 -7.608394,0.03125 c -7.049409,0.02895 -7.620409,0.03912 -7.771929,0.138411 -0.232428,0.152305 -0.327513,0.491277 -0.329346,1.174089 -0.0019,0.693371 0.154942,1.122473 0.453914,1.242162 0.116503,0.04664 2.015982,0.07384 6.075742,0.08701 5.879759,0.01907 5.908493,0.01978 6.40625,0.157857 1.002321,0.278043 1.891404,0.864488 2.554108,1.684703 1.399692,1.732372 1.470561,4.740836 0.157905,6.703279 -0.677215,1.012448 -1.525625,1.650149 -2.599483,1.953883 l -0.48753,0.137894 -7.921875,0.01865 -7.921875,0.01865 z"
       id="path100"
       inkscape:connector-curvature="0" /><path
       style="fill:#555756;fill-opacity:1;stroke:#ffffff;stroke-width:0.0625"
       d="m 89.333699,83.606989 v -8.65625 h 2.03125 2.03125 v 8.65625 8.65625 h -2.03125 -2.03125 z"
       id="path102"
       inkscape:connector-curvature="0" /><path
       style="fill:#555756;fill-opacity:1;stroke:#ffffff;stroke-width:0.0625"
       d="m 101.62956,92.164268 c -1.13502,-0.205202 -2.067061,-0.735888 -3.000548,-1.708449 -0.647197,-0.674287 -1.04472,-1.342915 -1.305004,-2.194997 -0.140897,-0.46125 -0.142671,-0.509933 -0.162763,-4.465645 -0.01765,-3.475588 -0.0072,-4.064879 0.07991,-4.5 0.119353,-0.596225 0.410381,-1.299232 0.749104,-1.80954 0.564283,-0.850129 1.732771,-1.776021 2.723571,-2.158111 0.97992,-0.377899 0.96097,-0.376787 6.42261,-0.376787 h 4.97924 l 1.99927,2 1.99927,2 -6.78089,0.0013 c -5.29472,0.001 -6.86524,0.01899 -7.16581,0.08198 -0.45256,0.09486 -0.76869,0.313939 -0.9344,0.647561 -0.11116,0.223797 -0.11925,0.45469 -0.13637,3.894153 -0.0201,4.044688 -0.0192,4.056365 0.3581,4.433651 0.42038,0.420379 0.19847,0.403824 5.70697,0.425762 l 4.98438,0.01985 v -1.345881 -1.345882 h -2.75 -2.75 v -2.03125 -2.03125 h 4.75 4.75 v 5.28125 5.28125 l -7.01563,-0.0056 c -5.73223,-0.0046 -7.10441,-0.02166 -7.50101,-0.09336 z"
       id="path104"
       inkscape:connector-curvature="0" /><path
       style="fill:#555756;fill-opacity:1;stroke:#ffffff;stroke-width:0.0625"
       d="m 120.0212,83.606989 v -8.65625 h 2.03125 2.03125 v 3.344032 3.344033 l 6.67187,-0.01591 6.67188,-0.01591 0.0162,-3.328125 0.0162,-3.328125 h 1.99946 1.99945 v 8.65625 8.65625 h -2 -2 v -3.34375 -3.34375 h -6.6875 -6.6875 v 3.34375 3.34375 h -2.03125 -2.03125 z"
       id="path106"
       inkscape:connector-curvature="0" /><path
       style="fill:#555756;fill-opacity:1;stroke:#ffffff;stroke-width:0.0625"
       d="m 152.6462,85.669489 v -6.71875 h -3.90625 -3.90625 v -2 -2 h 9.875 9.875 v 1.999534 1.999534 l -3.95313,0.01609 -3.95312,0.01609 -0.0159,6.703125 -0.0159,6.703125 h -1.99972 -1.99972 z"
       id="path108"
       inkscape:connector-curvature="0" /></g></svg>